<?xml version="1.0" encoding="utf-8"?>
<!-- Generator: Adobe Illustrator 15.0.2, SVG Export Plug-In . SVG Version: 6.00 Build 0)  -->
<!DOCTYPE svg PUBLIC "-//W3C//DTD SVG 1.1//EN" "http://www.w3.org/Graphics/SVG/1.1/DTD/svg11.dtd">
<svg version="1.1" id="Layer_1" xmlns="http://www.w3.org/2000/svg" xmlns:xlink="http://www.w3.org/1999/xlink" x="0px" y="0px"
	 width="412px" height="412px" viewBox="0 0 412 412" enable-background="new 0 0 412 412" xml:space="preserve">
<path fill="#00ABBA" d="M206.374,2C94.125,2,3.124,93.001,3.124,205.25c0,112.255,91.001,203.25,203.25,203.25
	c112.248,0,203.25-90.995,203.25-203.25C409.624,93.001,318.622,2,206.374,2z M322.186,321.063
	c-30.935,30.934-72.063,47.971-115.812,47.971s-84.877-17.037-115.812-47.971C59.627,290.129,42.59,248.999,42.59,205.25
	c0-43.746,17.037-84.875,47.973-115.811s72.065-47.973,115.811-47.973s84.876,17.037,115.811,47.973
	c30.937,30.936,47.974,72.065,47.974,115.811C370.158,248.999,353.121,290.129,322.186,321.063z"/>
<path fill="#C5197D" d="M206.374,82.081c-68.021,0-123.168,55.148-123.168,123.169c0,68.027,55.147,123.169,123.168,123.169
	c68.022,0,123.169-55.142,123.169-123.169C329.543,137.229,274.396,82.081,206.374,82.081z M206.374,288.952
	c-46.153,0-83.703-37.549-83.703-83.702c0-46.155,37.55-83.704,83.703-83.704c46.154,0,83.703,37.551,83.703,83.704
	C290.077,251.403,252.528,288.952,206.374,288.952z"/>
<circle fill="#00ABBA" cx="206.374" cy="203.77" r="43.413"/>
</svg>
